<svg width="56" height="57" viewBox="0 0 56 57" fill="none" xmlns="http://www.w3.org/2000/svg">
<g clip-path="url(#clip0_1_874)">
<path d="M48.9997 49.4607H37.333V56.4607H50.2736C51.7921 56.4588 53.2478 55.8546 54.3213 54.7807C55.3948 53.7068 55.9984 52.2508 55.9996 50.7323V37.794H48.9997V49.4607Z" fill="#00305A"/>
<path d="M7 7.45996H18.6667V0.459961H5.72833C4.20946 0.461197 2.75316 1.06511 1.67915 2.13912C0.605152 3.21312 0.00123586 4.66942 0 6.18829L0 19.1266H7V7.45996Z" fill="#00305A"/>
<path d="M7 37.794H0V50.7323C0.00123586 52.2512 0.605152 53.7075 1.67915 54.7815C2.75316 55.8555 4.20946 56.4594 5.72833 56.4607H18.6667V49.4607H7V37.794Z" fill="#00305A"/>
<path d="M50.2736 0.459946H37.333V7.45995H48.9997V19.1266H55.9996V6.18828C55.9984 4.66981 55.3948 3.21386 54.3213 2.13992C53.2478 1.06599 51.7921 0.461799 50.2736 0.459946V0.459946Z" fill="#00305A"/>
<path d="M27.9997 26.1273C32.51 26.1273 36.1663 22.471 36.1663 17.9607C36.1663 13.4503 32.51 9.79401 27.9997 9.79401C23.4893 9.79401 19.833 13.4503 19.833 17.9607C19.833 22.471 23.4893 26.1273 27.9997 26.1273Z" fill="#2C98F6"/>
<path d="M14 35.4607V44.794H42V35.4607C42 34.223 41.5083 33.036 40.6332 32.1609C39.758 31.2857 38.571 30.794 37.3333 30.794H18.6667C17.429 30.794 16.242 31.2857 15.3668 32.1609C14.4917 33.036 14 34.223 14 35.4607Z" fill="#2C98F6"/>
</g>
<defs>
<clipPath id="clip0_1_874">
<rect width="56" height="56" fill="white" transform="translate(0 0.459961)"/>
</clipPath>
</defs>
</svg>
