<svg width="59" height="51" viewBox="0 0 59 51" fill="none" xmlns="http://www.w3.org/2000/svg">
<g clip-path="url(#clip0_1_834)">
<path d="M7.92996 13.3C7.26996 13.27 6.67996 13.24 6.08996 13.22C3.22996 13.08 0.529955 10.66 0.0999554 7.82C-0.230045 5.64 0.259955 3.68 1.78996 2.07C3.03996 0.76 4.63996 0.1 6.45996 0.03C7.14996 0 7.84996 0.01 8.54996 0.01C22.73 0 36.91 0 51.1 0C52.74 0 54.28 0.29 55.62 1.3C57.49 2.7 58.42 4.58 58.35 6.91C58.26 10.22 55.54 12.99 52.24 13.22C51.73 13.25 51.23 13.27 50.72 13.27C50.47 13.27 50.4 13.36 50.4 13.6C50.4 17.07 50.4 20.53 50.4 24C50.4 32.23 50.4 40.46 50.4 48.69C50.4 48.85 50.4 49 50.4 49.16C50.35 49.91 49.83 50.45 49.08 50.46C47.34 50.47 45.59 50.47 43.85 50.46C43.05 50.46 42.54 49.92 42.51 49.12C42.48 48.25 42.48 47.38 42.45 46.51C42.41 45.48 41.34 44.88 40.48 45.39C40.06 45.64 39.84 46.03 39.82 46.52C39.8 47.36 39.79 48.2 39.78 49.04C39.76 50 39.29 50.47 38.33 50.48C36.22 50.48 34.12 50.48 32.01 50.47C31.76 50.47 31.49 50.42 31.26 50.31C30.82 50.1 30.57 49.71 30.56 49.22C30.53 48.32 30.53 47.41 30.5 46.51C30.46 45.48 29.38 44.88 28.52 45.4C28.1 45.65 27.88 46.05 27.87 46.53C27.85 47.37 27.85 48.21 27.83 49.05C27.81 50 27.32 50.48 26.37 50.48C24.34 50.48 22.3 50.48 20.27 50.48C20.05 50.48 19.83 50.47 19.62 50.42C19.02 50.29 18.63 49.82 18.61 49.2C18.58 48.3 18.58 47.39 18.55 46.49C18.51 45.47 17.42 44.87 16.57 45.39C16.16 45.64 15.94 46.02 15.93 46.5C15.91 47.23 15.9 47.95 15.89 48.68C15.89 48.86 15.89 49.03 15.88 49.21C15.84 49.95 15.36 50.46 14.61 50.47C12.86 50.48 11.1 50.48 9.34996 50.47C8.52996 50.47 8.01996 49.93 7.97996 49.08C7.95996 48.57 7.95996 48.06 7.95996 47.55C7.95996 36.72 7.95996 25.88 7.95996 15.05C7.95996 14.48 7.95996 13.91 7.95996 13.32L7.92996 13.3Z" fill="#00305A"/>
<path d="M45.15 47.85C45.97 47.85 46.8 47.85 47.63 47.85C47.69 47.85 47.79 47.73 47.79 47.66C47.82 47.25 47.84 46.83 47.84 46.42C47.84 34.1 47.84 21.78 47.84 9.45999C47.84 9.09999 47.82 8.72999 47.8 8.36999C47.77 7.92999 47.77 7.92999 47.31 7.92999C35.21 7.92999 23.11 7.92999 11.01 7.92999C10.53 7.92999 10.53 7.92999 10.53 8.39999C10.53 20.89 10.53 33.39 10.53 45.88C10.53 46.44 10.53 47 10.53 47.56C10.53 47.7 10.52 47.84 10.72 47.84C11.55 47.84 12.37 47.84 13.23 47.84C13.23 47.59 13.22 47.33 13.23 47.08C13.26 46.63 13.28 46.17 13.36 45.72C13.68 44 15.17 42.7 16.94 42.56C18.64 42.42 20.33 43.51 20.87 45.16C21.06 45.74 21.09 46.38 21.17 46.99C21.2 47.26 21.17 47.54 21.17 47.85H25.17C25.17 47.73 25.17 47.6 25.17 47.47C25.21 46.91 25.2 46.35 25.29 45.8C25.59 44.01 27.08 42.69 28.89 42.56C30.63 42.43 32.33 43.55 32.84 45.26C33.04 45.92 33.03 46.65 33.11 47.34C33.13 47.5 33.13 47.66 33.14 47.85H37.12C37.12 47.6 37.11 47.36 37.12 47.11C37.15 46.66 37.17 46.2 37.25 45.75C37.58 43.9 39.25 42.53 41.14 42.54C43 42.55 44.66 43.95 44.95 45.8C45.05 46.45 45.07 47.12 45.13 47.83L45.15 47.85Z" fill="white"/>
<path d="M29.1 2.64001C36.52 2.64001 43.94 2.64001 51.36 2.65001C51.96 2.65001 52.6 2.70001 53.16 2.89001C54.66 3.39001 55.42 4.56001 55.66 6.06001C56.01 8.18001 54.48 10.51 51.7 10.63C51.36 10.64 51.02 10.63 50.67 10.65C50.46 10.65 50.37 10.59 50.37 10.36C50.37 9.63001 50.37 8.91001 50.37 8.18001C50.37 7.96001 50.46 7.92001 50.65 7.92001C51.08 7.92001 51.52 7.92001 51.95 7.88001C52.53 7.81001 52.97 7.31001 53.02 6.75001C53.06 6.18001 52.71 5.61001 52.17 5.44001C51.9 5.36001 51.6 5.30001 51.32 5.30001C36.58 5.30001 21.85 5.30001 7.10998 5.30001C6.78998 5.30001 6.46998 5.36001 6.15998 5.45001C5.59998 5.61001 5.24998 6.17001 5.29998 6.74001C5.34998 7.30001 5.79998 7.82001 6.36998 7.88001C6.80998 7.93001 7.25998 7.91001 7.70998 7.92001C7.87998 7.92001 7.97998 7.97001 7.97998 8.17001C7.95998 8.90001 7.94998 9.62001 7.93998 10.35C7.93998 10.49 7.93998 10.63 7.74998 10.64C6.75998 10.67 5.76998 10.69 4.85998 10.2C3.42998 9.42001 2.55998 8.24001 2.61998 6.57001C2.68998 4.28001 4.43998 2.64001 6.72998 2.64001C13.44 2.64001 20.16 2.64001 26.87 2.64001C27.62 2.64001 28.36 2.64001 29.11 2.64001H29.1Z" fill="#2C98F6"/>
<path d="M29.1 39.85C25.26 39.85 21.42 39.85 17.58 39.85C17.27 39.85 16.93 39.8 16.65 39.67C16.09 39.42 15.84 38.83 15.96 38.25C16.09 37.64 16.58 37.26 17.3 37.21C17.39 37.21 17.49 37.21 17.58 37.21C25.29 37.21 33 37.21 40.71 37.21C40.96 37.21 41.21 37.23 41.45 37.29C42.03 37.43 42.44 38.01 42.41 38.59C42.38 39.18 41.91 39.71 41.3 39.8C41.02 39.84 40.74 39.85 40.46 39.85C36.67 39.85 32.89 39.85 29.1 39.85Z" fill="#00305A"/>
<path d="M29.1699 21.26C33.0199 21.26 36.8699 21.26 40.7199 21.26C40.9699 21.26 41.2199 21.28 41.4599 21.34C42.0399 21.48 42.4499 22.06 42.4199 22.64C42.3899 23.23 41.9199 23.76 41.3099 23.85C41.0799 23.89 40.8399 23.9 40.5999 23.9C32.9099 23.9 25.2199 23.9 17.5299 23.9C17.2399 23.9 16.9199 23.85 16.6599 23.72C16.1099 23.46 15.8499 22.87 15.9699 22.3C16.0999 21.69 16.5899 21.31 17.3099 21.26C17.4099 21.26 17.5199 21.26 17.6199 21.26C21.4699 21.26 25.3199 21.26 29.1699 21.26Z" fill="#00305A"/>
<path d="M29.21 26.58C32.99 26.58 36.76 26.58 40.54 26.58C40.77 26.58 41 26.58 41.22 26.61C41.86 26.66 42.33 27.11 42.41 27.76C42.48 28.32 42.12 28.9 41.55 29.09C41.35 29.16 41.13 29.2 40.91 29.2C33.08 29.2 25.25 29.2 17.42 29.2C16.63 29.2 16.09 28.79 15.96 28.12C15.82 27.41 16.32 26.7 17.04 26.61C17.26 26.58 17.47 26.57 17.69 26.57C21.53 26.57 25.37 26.57 29.2 26.57L29.21 26.58Z" fill="#00305A"/>
<path d="M29.17 18.57C25.32 18.57 21.47 18.57 17.62 18.57C17.37 18.57 17.12 18.56 16.88 18.5C16.29 18.35 15.9 17.79 15.93 17.2C15.96 16.6 16.46 16.06 17.07 15.98C17.21 15.96 17.36 15.96 17.5 15.96C25.22 15.96 32.94 15.96 40.66 15.96C40.93 15.96 41.2 15.96 41.46 16.04C42.06 16.2 42.47 16.79 42.41 17.37C42.35 18 41.84 18.51 41.21 18.57C41.02 18.59 40.84 18.59 40.65 18.59C36.82 18.59 32.99 18.59 29.16 18.59L29.17 18.57Z" fill="#00305A"/>
<path d="M29.17 34.51C25.32 34.51 21.47 34.51 17.62 34.51C17.37 34.51 17.12 34.5 16.88 34.44C16.29 34.29 15.89 33.73 15.93 33.14C15.96 32.54 16.46 32 17.07 31.92C17.21 31.9 17.36 31.9 17.5 31.9C25.22 31.9 32.94 31.9 40.66 31.9C40.93 31.9 41.2 31.9 41.46 31.98C42.06 32.14 42.47 32.73 42.41 33.31C42.35 33.94 41.84 34.45 41.21 34.51C41.02 34.53 40.84 34.53 40.65 34.53C36.82 34.53 32.99 34.53 29.16 34.53L29.17 34.51Z" fill="#00305A"/>
<path d="M23.8799 13.27C21.7299 13.27 19.5899 13.27 17.4399 13.27C16.6299 13.27 16.0899 12.86 15.9599 12.17C15.8299 11.47 16.3299 10.78 17.0299 10.68C17.2699 10.65 17.5099 10.64 17.7399 10.64C21.8899 10.64 26.0399 10.64 30.1799 10.64C30.99 10.64 31.4799 10.91 31.6899 11.49C32.0299 12.38 31.3499 13.27 30.2999 13.27C28.1499 13.27 26.0099 13.27 23.8599 13.27H23.8799Z" fill="#00305A"/>
</g>
<defs>
<clipPath id="clip0_1_834">
<rect width="58.35" height="50.46" fill="white"/>
</clipPath>
</defs>
</svg>
