<svg width="56" height="57" viewBox="0 0 56 57" fill="none" xmlns="http://www.w3.org/2000/svg">
<g clip-path="url(#clip0_1_877)">
<path d="M49 49.46H37.33V56.46H50.27C51.79 56.46 53.24 55.85 54.32 54.78C55.39 53.71 56 52.25 56 50.73V37.79H49V49.46Z" fill="#00305A"/>
<path d="M7 7.45996H18.67V0.459961H5.73C4.21 0.459961 2.75 1.06996 1.68 2.13996C0.61 3.20996 0 4.66996 0 6.18996V19.13H7V7.45996Z" fill="#00305A"/>
<path d="M7 37.79H0V50.73C0 52.25 0.61 53.71 1.68 54.78C2.75 55.85 4.21 56.46 5.73 56.46H18.67V49.46H7V37.79Z" fill="#00305A"/>
<path d="M9.53002 45.75C9.53002 46.4 10.05 46.93 10.7 46.93C11 46.93 11.29 46.82 11.52 46.6L13.45 44.72L11.82 43.03L9.88002 44.91C9.65002 45.14 9.52002 45.45 9.52002 45.75H9.53002ZM12.56 41.03L15.49 44.05C20.2 42.52 23.6 40.81 27.15 37.36L33.77 30.94L26.23 23.16L19.61 29.58C16.05 33.03 14.24 36.37 12.56 41.03ZM44.44 1.30996C43.89 0.739961 43.16 0.459961 42.43 0.459961C41.7 0.459961 40.99 0.739961 40.43 1.27996L28.91 12.45C27.78 13.55 27.72 15.32 28.82 16.46L44.43 1.31996L44.44 1.30996ZM45.54 3.37996L28.49 19.92L37.08 28.79L54.13 12.26C55.38 11.05 56.01 9.43996 56.01 7.81996C56.01 2.42996 49.48 -0.430039 45.54 3.37996Z" fill="#2C98F6"/>
</g>
<defs>
<clipPath id="clip0_1_877">
<rect width="56" height="56" fill="white" transform="translate(0 0.459961)"/>
</clipPath>
</defs>
</svg>
